<svg width="25" height="21" viewBox="0 0 25 21" fill="none" xmlns="http://www.w3.org/2000/svg">
<path d="M24.354 1.63091C24.354 1.43802 24.3029 1.24857 24.2059 1.08181C24.109 0.915053 23.9696 0.776927 23.802 0.681464C23.6344 0.586001 23.4445 0.536602 23.2516 0.538287C23.0587 0.539972 22.8697 0.592679 22.7038 0.691055C22.0639 1.07226 21.3748 1.3642 20.6558 1.55878C19.6296 0.67824 18.3207 0.196439 16.9685 0.201455C15.4852 0.203232 14.0606 0.781359 12.9956 1.81377C11.9306 2.84618 11.3084 4.25207 11.2605 5.73459C8.33579 5.26829 5.68503 3.7418 3.81376 1.44622C3.70101 1.30958 3.55708 1.20203 3.3941 1.13261C3.23111 1.06319 3.05383 1.03394 2.87718 1.04733C2.70058 1.06194 2.53018 1.11933 2.38072 1.21453C2.23125 1.30973 2.1072 1.43989 2.01929 1.59375C1.56851 2.3805 1.30964 3.26247 1.26368 4.16804C1.21773 5.07361 1.386 5.97726 1.75482 6.80559L1.75263 6.80668C1.5865 6.90876 1.4494 7.05183 1.35448 7.22216C1.25956 7.39248 1.21 7.58434 1.21058 7.77933C1.20882 7.93975 1.21869 8.10009 1.24008 8.25909C1.35169 9.63396 1.96097 10.9209 2.95368 11.8786C2.88632 12.0071 2.84525 12.1476 2.83286 12.2921C2.82048 12.4366 2.83703 12.5821 2.88156 12.7201C3.3143 14.0689 4.23479 15.2076 5.46288 15.9135C4.21503 16.3959 2.86768 16.564 1.53953 16.4031C1.29382 16.3725 1.04502 16.4263 0.833879 16.5556C0.622734 16.6849 0.461759 16.8821 0.377317 17.1149C0.292876 17.3476 0.289974 17.6021 0.369086 17.8368C0.448199 18.0714 0.604636 18.2722 0.812778 18.4063C3.09708 19.8773 5.75673 20.6593 8.47371 20.6586C11.5547 20.6933 14.5609 19.7088 17.0245 17.8583C19.4881 16.0078 21.2711 13.3949 22.0962 10.4262C22.4819 9.13312 22.6788 7.79108 22.6808 6.44167L22.6798 6.2231C23.2504 5.6076 23.6924 4.88438 23.9799 4.09583C24.2674 3.30727 24.3946 2.46926 24.354 1.63091ZM20.741 5.14117C20.5603 5.35451 20.4687 5.62926 20.4853 5.90835C20.4962 6.08868 20.4951 6.27009 20.4951 6.44167C20.4928 7.58172 20.3257 8.71544 19.999 9.80767C19.3254 12.3339 17.8235 14.5611 15.7339 16.1324C13.6442 17.7037 11.0877 18.5283 8.47371 18.474C7.53508 18.4742 6.59971 18.3638 5.68692 18.1451C6.85115 17.7696 7.93969 17.1909 8.90211 16.4358C9.07957 16.2963 9.20948 16.1053 9.27397 15.8889C9.33846 15.6726 9.33437 15.4416 9.26226 15.2277C9.19016 15.0137 9.05357 14.8274 8.87128 14.6942C8.68898 14.5611 8.46993 14.4876 8.24421 14.484C7.33574 14.4698 6.46827 14.1034 5.82462 13.4622C5.98782 13.4316 6.14993 13.3933 6.31094 13.3474C6.54703 13.2803 6.75365 13.1357 6.89752 12.9368C7.04139 12.738 7.11414 12.4965 7.10404 12.2513C7.09394 12.006 7.00159 11.7713 6.84186 11.585C6.68213 11.3986 6.46432 11.2715 6.22351 11.224C5.6962 11.1199 5.20002 10.8955 4.77354 10.5683C4.34707 10.2412 4.0018 9.82006 3.76459 9.33774C3.96212 9.36474 4.16092 9.38152 4.36019 9.38801C4.59699 9.39191 4.82888 9.32028 5.02224 9.18352C5.21559 9.04675 5.36037 8.85196 5.43556 8.62738C5.50775 8.4009 5.50412 8.15707 5.42524 7.93283C5.34635 7.7086 5.19651 7.5162 4.99842 7.3848C4.51749 7.06467 4.12349 6.63023 3.8517 6.12042C3.57991 5.6106 3.43883 5.04133 3.4411 4.4636C3.4411 4.39147 3.44328 4.31825 3.44766 4.24721C5.89726 6.53197 9.07468 7.8788 12.42 8.05035C12.5889 8.05677 12.7571 8.02468 12.9118 7.95652C13.0665 7.88836 13.2036 7.78591 13.3129 7.65693C13.4211 7.52715 13.4978 7.37404 13.5368 7.20964C13.5759 7.04523 13.5763 6.87401 13.538 6.70942C13.4754 6.44846 13.4435 6.18108 13.4429 5.91273C13.4441 4.97805 13.8159 4.08198 14.4768 3.42106C15.1377 2.76014 16.0338 2.38833 16.9685 2.38717C17.4495 2.38575 17.9256 2.48407 18.3667 2.67594C18.8078 2.8678 19.2043 3.14904 19.5312 3.50188C19.6573 3.63753 19.8159 3.73867 19.9921 3.79567C20.1683 3.85268 20.3561 3.86365 20.5378 3.82755C20.9867 3.74029 21.4292 3.62272 21.8623 3.47565C21.567 4.07981 21.1897 4.64028 20.741 5.14117Z" fill="white"/>
</svg>
